<svg xmlns="http://www.w3.org/2000/svg" viewBox="0 0 960 400" fill="none">

  <g transform="translate(480, 200)">
    <!-- 11x7 grid of uniform dots: massive, undifferentiated market -->
    <g fill="#dce1e8">
      <!-- Row 1 -->
      <circle cx="-100" cy="-60" r="1.5"/><circle cx="-80" cy="-60" r="1.5"/><circle cx="-60" cy="-60" r="1.5"/><circle cx="-40" cy="-60" r="1.5"/><circle cx="-20" cy="-60" r="1.5"/><circle cx="0" cy="-60" r="1.5"/><circle cx="20" cy="-60" r="1.5"/><circle cx="40" cy="-60" r="1.5"/><circle cx="60" cy="-60" r="1.5"/><circle cx="80" cy="-60" r="1.5"/><circle cx="100" cy="-60" r="1.5"/>
      <!-- Row 2 -->
      <circle cx="-100" cy="-40" r="1.5"/><circle cx="-80" cy="-40" r="1.5"/><circle cx="-60" cy="-40" r="1.5"/><circle cx="-40" cy="-40" r="1.5"/><circle cx="-20" cy="-40" r="1.5"/><circle cx="0" cy="-40" r="1.5"/><circle cx="20" cy="-40" r="1.5"/><circle cx="40" cy="-40" r="1.5"/><circle cx="60" cy="-40" r="1.5"/><circle cx="80" cy="-40" r="1.5"/><circle cx="100" cy="-40" r="1.5"/>
      <!-- Row 3 -->
      <circle cx="-100" cy="-20" r="1.5"/><circle cx="-80" cy="-20" r="1.5"/><circle cx="-60" cy="-20" r="1.5"/><circle cx="-40" cy="-20" r="1.5"/><circle cx="-20" cy="-20" r="1.5"/><circle cx="0" cy="-20" r="1.5"/><circle cx="20" cy="-20" r="1.5"/><circle cx="40" cy="-20" r="1.5"/><circle cx="60" cy="-20" r="1.5"/><circle cx="80" cy="-20" r="1.5"/><circle cx="100" cy="-20" r="1.5"/>
      <!-- Row 4 -->
      <circle cx="-100" cy="0" r="1.5"/><circle cx="-80" cy="0" r="1.5"/><circle cx="-60" cy="0" r="1.5"/><circle cx="-40" cy="0" r="1.5"/><circle cx="-20" cy="0" r="1.5"/><circle cx="0" cy="0" r="1.5"/><circle cx="20" cy="0" r="1.5"/><circle cx="40" cy="0" r="1.5"/><circle cx="60" cy="0" r="1.5"/><circle cx="80" cy="0" r="1.5"/><circle cx="100" cy="0" r="1.5"/>
      <!-- Row 5 -->
      <circle cx="-100" cy="20" r="1.5"/><circle cx="-80" cy="20" r="1.5"/><circle cx="-60" cy="20" r="1.5"/><circle cx="-40" cy="20" r="1.5"/><circle cx="-20" cy="20" r="1.5"/><circle cx="0" cy="20" r="1.5"/><circle cx="20" cy="20" r="1.5"/><circle cx="40" cy="20" r="1.5"/><circle cx="60" cy="20" r="1.5"/><circle cx="80" cy="20" r="1.5"/><circle cx="100" cy="20" r="1.5"/>
      <!-- Row 6 -->
      <circle cx="-100" cy="40" r="1.5"/><circle cx="-80" cy="40" r="1.5"/><circle cx="-60" cy="40" r="1.5"/><circle cx="-40" cy="40" r="1.5"/><circle cx="-20" cy="40" r="1.5"/><circle cx="0" cy="40" r="1.5"/><circle cx="20" cy="40" r="1.5"/><circle cx="40" cy="40" r="1.5"/><circle cx="60" cy="40" r="1.5"/><circle cx="80" cy="40" r="1.5"/><circle cx="100" cy="40" r="1.5"/>
      <!-- Row 7 -->
      <circle cx="-100" cy="60" r="1.5"/><circle cx="-80" cy="60" r="1.5"/><circle cx="-60" cy="60" r="1.5"/><circle cx="-40" cy="60" r="1.5"/><circle cx="-20" cy="60" r="1.5"/><circle cx="0" cy="60" r="1.5"/><circle cx="20" cy="60" r="1.5"/><circle cx="40" cy="60" r="1.5"/><circle cx="60" cy="60" r="1.5"/><circle cx="80" cy="60" r="1.5"/><circle cx="100" cy="60" r="1.5"/>
    </g>
  </g>
</svg>
