<svg width="18" height="18" viewBox="0 0 24 24" fill="currentColor" aria-hidden="true"><path d="M12.186 24h-.007c-3.581-.024-6.334-1.205-8.184-3.509C2.35 18.44 1.5 15.586 1.472 12.01v-.017c.03-3.579.879-6.43 2.525-8.482C5.845 1.205 8.6.024 12.18 0h.014c2.746.02 5.043.725 6.826 2.098 1.677 1.29 2.858 3.13 3.509 5.467l-2.04.569c-1.104-3.96-3.898-5.984-8.304-6.015-2.91.022-5.11.936-6.54 2.717C4.307 6.504 3.616 8.914 3.59 12c.025 3.086.718 5.496 2.057 7.164 1.432 1.781 3.632 2.695 6.54 2.717 2.227-.017 4.07-.59 5.47-1.703 1.57-1.246 2.347-2.93 2.347-4.98 0-1.46-.485-2.575-1.444-3.314-.908-.7-2.126-1.058-3.572-1.083a8.89 8.89 0 00-.107 0c-1.2.017-2.24.31-2.98.882-.67.516-1.023 1.2-1.023 1.974 0 .87.37 1.544 1.07 1.952.636.37 1.47.558 2.476.558l.06-.001c.953-.012 1.744-.192 2.35-.535l.952 1.702c-.934.527-2.09.817-3.34.837h-.084c-1.456 0-2.73-.335-3.68-.97-1.04-.693-1.612-1.766-1.612-3.105 0-1.263.578-2.372 1.673-3.213 1.075-.826 2.507-1.27 4.14-1.293h.134c1.84.032 3.413.533 4.68 1.512 1.303 1.007 1.965 2.467 1.965 4.339 0 2.703-1.075 4.933-3.112 6.549-1.802 1.431-4.106 2.175-6.853 2.195z"/></svg>
