<svg width="18" height="18" viewBox="0 0 24 24" fill="currentColor" aria-hidden="true"><path d="M12 10.8c-1.087-2.114-4.046-6.053-6.798-7.995C2.566.944 1.561 1.266.902 1.565.139 1.908 0 3.08 0 3.768c0 .69.378 5.65.624 6.479.785 2.627 3.6 3.501 6.164 3.12-4.476.767-8.31 3.065-4.884 7.09C5.17 23.972 8.57 22.62 10.502 20.36c.914-1.07 1.343-1.81 1.498-2.265.155.455.584 1.195 1.498 2.265 1.932 2.26 5.332 3.612 8.598.097 3.426-4.025-.408-6.323-4.884-7.09 2.564.381 5.379-.493 6.164-3.12.246-.828.624-5.79.624-6.479 0-.688-.139-1.86-.902-2.203-.659-.3-1.664-.62-4.3 1.24C16.046 4.748 13.087 8.687 12 10.8z"/></svg>
